<svg version="1.1" xmlns="http://www.w3.org/2000/svg" xmlns:xlink="http://www.w3.org/1999/xlink" width="806" height="592.2912" viewBox="0,0,806,592.2912"><g transform="translate(150.5,105.15576)"><g data-paper-data="{&quot;isPaintingLayer&quot;:true}" fill="#dc00ff" fill-rule="nonzero" stroke="none" stroke-width="0.5" stroke-linecap="butt" stroke-linejoin="miter" stroke-miterlimit="10" stroke-dasharray="" stroke-dashoffset="0" style="mix-blend-mode: normal"><path d="M-123.5,-24l0.24512,-2.45122l0.24036,-2.45169l0.51452,-2.57258v-45.52451l0.12456,-1.24556l-0.45501,-2.2483l2.49559,-5.98941l0.95987,-3.01673l0.57406,-0.6647l0.3378,-0.81072l2.26898,-2.20766l4.24103,-4.91067l2.21443,-0.59849l1.05836,-0.66844l0.20143,-0.10071l0.47891,-0.41361l0.95783,-0.30476l0.36183,-0.18092l3.66855,-1.39754l1.83527,-0.28789l1.77027,-0.56327l3.90625,-0.39062h0.40454l0.993,-0.15576l0.61332,0.15576h170.98913l1.18217,0.11822l1.18806,-0.0056l21,2l0.38939,0.07675l0.39674,0.01068l53.42816,6.79995l133.22769,0l40.81756,-3.88739l0.11861,0.00056l0.11659,-0.02184l35,-3l1.07012,0.01516l1.06491,-0.10649h9.93094l21.95909,-3.65985l2.05789,-0.13494l2.05208,-0.20521h224.40454l0.993,-0.15576l0.61332,0.15576h1.98913l3.90625,0.39063l8.59375,2.73438l8.59375,7.42188l3.90625,14.45313l-3.90625,14.45313l-8.59375,7.42188l-8.59375,2.73438l-1.14517,0.11452l-0.21378,0.27486l-0.89605,0.49587l-0.03387,0.0271l-3.29429,2.13519l-1.89256,0.72685l-1.77384,0.98164l-3.75379,1.14912l-0.04253,0.00851l-0.84902,0.32607l-3.76138,2.35086l-1.99329,0.98492l-1.97192,1.02704l-2.58313,1.03325l-0.83413,0.55609l-2.14747,1.14084l-0.23207,0.16914l-0.55257,0.2477l-0.53477,0.28409l-0.27599,0.07935l-1.12464,0.50415v70.21702l0.80695,6.45558l0.03837,1.55405l0.15468,1.54681l0,3.52451l1.46236,7.31182l1.94231,8.74041l0.1401,1.17177l0.26217,1.15062l0.93674,7.49395l0.75202,4.51213l1.75785,7.0314l0.14471,0.98886l0.26157,0.96455l0.93373,5.60236l0.92094,4.60471l0.24036,2.45169l0.24512,2.45122v190l-0.14955,1.49547l0.01266,0.14938l-0.14052,1.12917l-0.11322,1.13223l-0.04545,0.14286l-0.1856,1.49142l-4.57764,20.1416l-0.80069,11.2096v87.10828l-0.23377,2.33767l-0.20777,2.34013l-3.55846,18.68194v5.64026l-0.20521,2.05208l-0.13494,2.05789l-0.65985,3.95909v7.93094l-0.19344,1.93443l0.01545,0.2446l-0.12603,0.86118l-0.0866,0.86604l-0.07431,0.23355l-0.2815,1.92359l-0.86622,3.46486l-0.08055,1.10088l-0.83769,1.61953l-0.54191,1.50962l-1.4742,2.38821l-1.2894,2.49284l-1.01567,1.24138l-0.95775,1.55155l-0.90255,0.63547l-1.60995,1.60995l-3.03835,2.48592l-2.52794,1.30755l-2.57747,2.25529l-2.35088,0.29386l-0.5539,0.2865l-4.19191,0.30672l-4.17066,0.52133l-0.59933,-0.17231l-2.36286,0.17289l-2.96972,-1.70601l-2.73528,-0.78639l-3.46688,-1.84178l-2.69417,-1.79611l-7.6883,-4.80519l-1.48255,-1.14651l-1.53726,-1.07204l-7,-6l-0.66394,-0.69507l-0.74394,-0.60868l-1.70486,-1.70486l-1.22013,-0.48805l-0.82647,-0.27549l-3.47378,-0.69476l-3.75379,-1.14912l-0.66028,-0.3654h-453.68303l-2.05208,-0.20521l-2.05789,-0.13494l-9.95909,-1.65985h-13.68405l-17.65716,1.76572l-19.91193,3.79275l-0.10467,0.00929l-0.101,0.02899l-9.25196,1.68218l-1.31448,0.43816l-3.82932,0.86469l-0.08711,0.00119l-0.08302,0.02641l-3.90625,0.39063h-10.94306l-0.63007,0.21002l-0.69317,0.42233l-1.24803,0.17957l-3.4093,0.76984l-2.14535,0.02939l-2.12368,0.30557l-3.48764,-0.2287l-1.26076,0.01727l-0.68978,-0.28403l-0.46625,0.09325l-2.45169,0.24036l-2.45122,0.24512l-11.02954,0l-5.4109,0.84877l-0.55955,0.15123l-0.14857,-0.04015l-1.24898,0.19592l-11.00565,-2.79508l-0.8362,-0.93889l-1.21373,-0.32804l-0.08097,-0.09375l-3.53452,0l-0.23576,0.13544l-1.85096,-0.13544h-2.84467l-3.90625,-0.39062l-0.4218,-0.13421l-2.30108,-0.16837l-2.83227,-1.46497l-3.0386,-0.96683l-1.74617,-1.50805l-0.39315,-0.20336l-3.03835,-2.48592l-2.01148,-2.01148l-0.61482,-0.53098l-0.0004,0.00023l-4.06664,-0.29756l-2.02653,0.31789l-2.57841,-0.65483l-2.65317,-0.19413l-1.82201,-0.94242l-3.95205,-1.0037l-1.71818,-1.92918l-0.51795,-0.26791l-3.03835,-2.48592l-6,-6l-0.09787,-0.11961l-0.99478,-0.75208l-0.87871,-1.53774l-0.51457,-0.62891l-1.48133,-2.8639l-1.59971,-2.7995l-0.24848,-0.77367l-0.81368,-1.57312l-0.09101,-1.24375l-0.04726,-0.14715l-2.33499,-10.89663l-2.58063,-5.16125l-1.18734,-3.11676l-0.08434,-0.16472l-0.05333,-0.19666l-0.07254,-0.19041l-0.02868,-0.18282l-0.87295,-3.219l-1,-6l-0.01909,-0.29114l-0.03165,-0.12846l-0.16441,-0.19037l-0.96683,-3.0386l-1.46497,-2.83227l-0.16837,-2.30108l-0.13421,-0.4218l-0.39062,-3.90625l0,-2.84467l-0.13544,-1.85096l0.13544,-0.23576l0,-54.59312l-1.51452,-7.57258l-0.1394,-1.42188l-0.25973,-1.40489l-1,-12l0.0172,-1.04058l-0.10356,-1.03556v-154l0.0542,-0.54204l-0.03061,-0.54389l0.9764,-22.45729v-65.45678l0.39063,-3.90625l2.73438,-8.59375l7.42188,-8.59375l14.45313,-3.90625l1,0.27027zM-72.5,-52.66667l0.25,-0.33333h-0.25z"/></g></g></svg>